<?xml version="1.0" encoding="UTF-8"?>
<svg id="Layer_2" data-name="Layer 2" xmlns="http://www.w3.org/2000/svg" viewBox="0 0 64 64">
  <defs>
    <style>
      .cls-1 {
        fill: #c1c1c1;
      }

      .cls-2 {
        fill: #272626;
      }
    </style>
  </defs>
  <g id="Layer_1-2" data-name="Layer 1">
    <rect class="cls-1" width="64" height="64" rx="10.03" ry="10.03"/>
  </g>
  <g id="Layer_2-2" data-name="Layer 2">
    <g id="b4kDrW.tif">
      <path class="cls-2" d="M44.49,31.12c-.17.16-.06,3.87-.19,4.65-.17.99-.89,1.71-1.07,2.46-.2.82-.04,1.69-.21,2.55-.48,2.39-3.9,4.86-2.05,8,.42.72,1.43.62,1.68,1.01.15.22.14,1.05.09,1.08-.1.07-2.21.19-2.5.17-1.5-.11-1.87-.63-1.97-2.06-.2-2.98.4-6.47,1.1-9.36l-.38-.65c-1.1.67-4.01.52-4.71,1.29-.29.32-.94,2.19-1.07,2.73-.32,1.27-1.04,5.35-.64,6.4.08.21,2.06,1.73,1.35,2.25-.08.06-1.78.21-2.01.2-.28-.01-2.17-.27-2.25-.34-.11-.11.12-2.5.09-3.06-.02-.43-.38-.79-.41-1.13-.11-1.54.87-4.4.93-6.09.02-.53-.18-2.03-.64-2.25-.4-.19-3.38-1.26-3.65-1.27-.76-.01-.99,1.77-1.41,2.38-.6.85-2.56,2.07-3.3,2.83-.9.93-1.55,2.64-1.1,3.89.22.62,1.71,1.09,1.2,1.76-.61.8-2.2.27-2.53.47-.2.13-.13.96-.51,1.03-.43.09-2.68-.02-2.9-.36-.14-.21.31-4.19.33-4.97.06-1.64.3-2.52.4-3.98.14-2.05-.44-4.43-.06-6.57l-1.1.9c.59-1.21.4-2.97.8-4.14.25-.74,2.51-3.25,3.22-3.74,4.21-2.89,10.73.37,15.55-1.03.29-.08,3.77-2.5,3.9-2.75.37-.68-.71-.88-.6-1.44.05-.29,1.34-1.83,1.71-2.06,1.51-.92,1.71-.03,2.98.17.82.13,2.07.09,2.94.09.98,0,1.86-.73,2.65.36.08.11,1.03,2.24,1.06,2.37.15.69-.09,1.39,0,2.07.08.56.63,1.07.68,1.7.02.3-.25,1.98-.35,2.28-.33,1.03-1.81.97-2.65,1.3-.49.19-.87.57-1.35.77-.32.13-1.01.04-1.06.1Z"/>
    </g>
  </g>
</svg>